<?xml version="1.0" encoding="UTF-8"?>
<svg  viewBox="0 0 78 86" version="1.1" xmlns="http://www.w3.org/2000/svg" xmlns:xlink="http://www.w3.org/1999/xlink">
    <!-- Generator: Sketch 49 (51002) - http://www.bohemiancoding.com/sketch -->
    <title>Group 11</title>
    <desc>Created with Sketch.</desc>
    <defs></defs>
    <g id="Page-1" stroke="none" stroke-width="1" fill="none" fill-rule="evenodd">
        <g id="Page-1-Copy-3" transform="translate(-1.000000, 0.000000)" fill="#000000">
            <g id="Group-11">
                <path class="outer" fill="none" d="M73.6522859,19.6044461 C76.626946,21.318091 77.547367,23.6453585 77.4976682,26.5786306 L77.4976682,59.456929 C77.4549863,62.1982905 77.08498,64.4305471 74.6136315,66.4311135 L44.8119193,83.3684188 C41.5962936,84.9904106 38.307832,84.5493599 35.1984638,82.3721067 L5.39675156,66.4311135 C3.42034543,65.2981468 2.43172718,63.1413989 2.5127149,59.456929 L2.5127149,26.5786306 C2.33837918,23.0987957 3.91106499,21.393782 6.38279675,19.9586068 C8.03061793,19.0018234 17.9562888,13.2380014 36.1598093,2.66714084 C38.3266951,1.35979665 40.9607533,1.27428682 43.8505737,2.66714084 L73.6522859,19.6044461 Z"/>
                <path d="M42.655042,3.83158141 C40.6095473,2.86826527 38.9172403,2.89392793 37.4766795,3.76267069 C17.9078504,14.8692813 7.59509709,20.7448516 6.53841962,21.3893817 C4.95340341,22.3561767 3.91199932,24.0013993 4.00819832,25.9215831 C4.07233098,27.2017056 4.07341658,38.6232427 4.01145513,60.1861943 C3.95232201,62.8764069 4.45973991,64.0727951 5.38790133,64.6063302 L36.5391065,81.2691698 C39.1080048,83.0679732 41.3734686,83.3329777 43.6313943,82.2187332 L74.326945,64.7734297 C75.6183225,63.6663558 75.9595171,62.6016212 75.9986006,60.1153993 L75.9990629,25.8670076 C76.0364408,23.6609341 75.4305911,22.4756682 73.5485343,21.3893817 L42.655042,3.83158141 Z M74.99879,18.6683493 C78.0924714,20.4505602 79.04972,22.8709457 78.9980326,25.9215831 L78.9980326,60.1153993 C78.953643,62.9664475 78.5688321,65.2880205 75.9986006,67.3686331 L45.0044702,84.9836293 C41.6601817,86.6705199 38.240143,86.211822 35.0063636,83.9474531 L4.01223309,67.3686331 C1.95674751,66.1903344 0.928572933,63.9472913 1.01280111,60.1153993 L1.01280111,25.9215831 C0.831489913,22.302514 2.46710161,20.5292797 5.03773166,19.0366807 C6.75148503,18.0416147 17.0742992,12.0471721 36.0061742,1.05335308 C38.2597608,-0.306300222 40.9992123,-0.395231449 44.0046595,1.05335308 L74.99879,18.6683493 Z" id="Fill-1" fill-rule="nonzero" opacity="0.119999997"></path>
                <path d="M29.3017963,61.6328798 C30.1688095,63.1573711 32.3243069,63.7091387 33.523851,61.6328798 C34.7233951,59.5566209 47.5957574,34.7185789 47.9888757,34.0133492 C48.3819941,33.3081196 48.8003231,33.0106796 49.9806147,33.0106796 C51.1609063,33.0106796 56.6699539,33.0460126 57.9475706,33.0106796 C59.2251872,32.9753466 59.275478,33.3606684 58.94344,34.0133492 C58.6114021,34.6660301 49.8900116,51.8565461 49.230663,53.2226936 C48.5713144,54.5888411 47.5191254,54.5758091 46.9930063,53.6519102 C46.6422601,53.0359775 45.3542788,50.5598875 43.1290623,46.22364 L40.8399995,50.3456249 L46.3046265,61.08543 C47.4584062,63.0816546 49.1027732,63.2056623 50.3148171,61.08543 C51.5268609,58.9651978 64.7565648,33.9359959 65.6202808,32.4307369 C66.4839968,30.925478 65.9526649,29.0153279 63.9227875,29.0000009 C61.89291,28.984674 48.0272881,29.0000009 46.9930063,29.0000009 C45.9587245,29.0000009 45.2846444,29.4209728 45.0012673,30.0026706 C44.7178902,30.5843684 33.3138687,51.9121495 32.5983272,53.2226936 C31.8827857,54.5332376 31.266537,54.2611429 30.7841095,53.2226936 C30.4624912,52.530394 27.2345879,46.1272792 21.1003997,34.0133492 C20.8336492,33.4435032 20.5395609,33.0106796 21.1003997,33.0106796 C21.6612385,33.0106796 30.4977453,33.0106796 31.0590945,33.0106796 C31.6204437,33.0106796 31.9080341,33.2830048 32.2368251,33.8284364 C32.4560192,34.1920575 33.9750641,37.1742203 36.7939598,42.774925 L39.1451451,38.2851874 C36.5717653,33.08643 35.2042411,30.3255911 35.0425725,30.0026706 C34.8000695,29.5182899 34.2975897,29.0000009 33.0508335,29.0000009 C31.8040773,29.0000009 18.5498759,29.0041364 15.8905265,29.0000009 C13.2311772,28.9958655 13.9658067,31.1500948 14.5848395,32.4307369 C15.2038723,33.7113791 28.4347832,60.1083885 29.3017963,61.6328798 Z" id="Fill-4-Copy" opacity="0.12"></path>
            </g>
        </g>
    </g>
    <style>
        .outer{
            animation: nudge 2s linear infinite; 
            <!-- //infinite -->
          
            stroke-linecap:round;
            stroke:#7DA0E1;
            stroke-width:3;
        }
        <!-- 一圈252个单位 -->
        @keyframes nudge {
            0% {
                stroke-dasharray: 5 255;
                stroke-dashoffset: 105;
            }
            28% {
                <!-- 从1-10帧，蓝色线条开始移动的同时长度拉长，走到10帧的时候（1/3秒）的时候是这条线的最长值，一直旋转的固定值 -->
                stroke-dasharray: 70 180;
                stroke-dashoffset: 50;
            }
            <!-- 整个旋转持续3周 6*12-->
            52%{
                stroke-dasharray: 70 255;
                stroke-dashoffset: -60;
            }
            <!-- 一圈 -->
            58%{
                stroke-dasharray: 70 255;
                stroke-dashoffset: -172;
            }
            64%{
                stroke-dasharray: 70 180;
                stroke-dashoffset: -222;
            }
            70%{
                stroke-dasharray: 70 255;
                stroke-dashoffset: -350;
            }
            76%{
                stroke-dasharray: 70 255;
                stroke-dashoffset: -510;
            }
            <!-- 然后去到1秒+5/6秒的时候开始长度收缩 -->
            91% {
                stroke-dasharray: 50 180;
                stroke-dashoffset: -630;
            }
            <!-- 回到初始值，衔接开始 -->
            100% {
                stroke-dasharray: 5 255;
                stroke-dashoffset: -675;
            }
        }
    </style>
</svg>
