<!DOCTYPE svg PUBLIC "-//W3C//DTD SVG 20010904//EN" "http://www.w3.org/TR/2001/REC-SVG-20010904/DTD/svg10.dtd">
<svg version="1.0" xmlns="http://www.w3.org/2000/svg" width="290px" height="290px" viewBox="0 0 2900 2900" preserveAspectRatio="xMidYMid meet">
<g id="layer101" fill="#fc9c8a" stroke="none">
 <path d="M1192 2884 c-186 -34 -388 -117 -560 -230 -120 -79 -310 -271 -391 -394 -114 -173 -188 -358 -226 -559 -20 -112 -20 -390 0 -502 57 -306 187 -553 409 -775 221 -221 480 -357 776 -409 113 -20 387 -20 500 0 296 52 555 188 776 409 222 222 352 469 409 775 20 112 20 390 0 502 -57 306 -187 553 -409 775 -221 221 -480 357 -776 409 -106 19 -405 18 -508 -1z"/>
 </g>
<g id="layer102" fill="#fdc5bb" stroke="none">
 <path d="M1192 2884 c-186 -34 -388 -117 -560 -230 -120 -79 -310 -271 -391 -394 -114 -173 -188 -358 -226 -559 -20 -112 -20 -390 0 -502 57 -306 187 -553 409 -775 221 -221 480 -357 776 -409 113 -20 387 -20 500 0 296 52 555 188 776 409 222 222 352 469 409 775 20 112 20 390 0 502 -57 306 -187 553 -409 775 -221 221 -480 357 -776 409 -106 19 -405 18 -508 -1z m528 -153 c461 -107 825 -438 964 -881 85 -269 80 -566 -15 -837 -132 -376 -445 -681 -824 -803 -257 -82 -560 -81 -810 2 -906 303 -1194 1449 -538 2139 209 219 461 351 762 399 93 15 364 4 461 -19z"/>
 <path d="M1255 2679 c-171 -25 -396 -119 -541 -226 -99 -74 -235 -217 -299 -314 -242 -367 -273 -821 -85 -1216 65 -137 137 -239 242 -344 474 -475 1235 -484 1720 -21 110 106 189 214 258 356 234 478 141 1035 -235 1411 -190 190 -410 305 -669 350 -95 16 -292 18 -391 4z"/>
 </g>
<g id="layer103" fill="#fefdfd" stroke="none">
 <path d="M1225 2890 c-22 -5 -56 -11 -76 -15 -46 -7 -240 -69 -271 -86 -12 -7 -25 -14 -28 -15 -41 -9 -239 -129 -300 -179 -23 -20 -224 -221 -235 -236 -6 -8 -21 -30 -35 -49 -13 -19 -27 -37 -30 -40 -14 -11 -115 -189 -125 -220 -7 -21 -18 -50 -31 -75 -8 -16 -16 -39 -18 -50 -3 -11 -12 -40 -21 -65 -74 -204 -74 -617 0 -820 9 -25 19 -56 21 -69 3 -14 11 -36 19 -50 11 -22 23 -50 30 -71 10 -31 111 -209 125 -220 3 -3 17 -21 30 -40 14 -19 29 -41 35 -49 11 -15 211 -216 235 -236 54 -45 268 -174 300 -180 3 0 16 -7 29 -14 30 -17 218 -78 262 -85 19 -3 57 -10 85 -15 112 -22 471 -9 544 19 3 1 10 3 15 4 37 6 82 20 93 28 6 6 12 8 12 4 0 -9 151 51 214 86 82 45 112 62 116 67 3 4 26 20 52 36 27 17 48 33 48 38 0 4 5 7 10 7 14 0 25 10 141 122 54 53 99 101 99 107 0 5 6 14 14 18 18 10 124 174 154 238 13 27 26 52 30 55 4 3 8 10 9 15 1 6 19 55 39 110 20 55 36 108 36 118 0 9 4 17 9 17 6 0 8 4 5 8 -3 5 1 33 9 62 8 29 12 57 9 62 -3 5 -1 14 4 21 6 7 10 89 10 197 0 108 -4 190 -10 197 -5 7 -7 16 -4 21 3 5 -1 33 -9 62 -8 29 -12 57 -9 62 3 4 0 8 -6 8 -6 0 -10 6 -8 13 1 6 -6 36 -16 65 -10 29 -19 58 -20 65 -2 7 -10 28 -19 48 -9 20 -17 42 -19 50 -2 8 -6 16 -10 19 -4 3 -17 28 -30 55 -30 64 -136 228 -154 238 -8 4 -14 12 -14 17 0 16 -219 230 -236 230 -4 0 -14 8 -23 18 -9 9 -32 26 -51 36 -19 11 -37 23 -40 26 -3 4 -25 18 -50 32 -25 14 -62 35 -83 46 -20 12 -38 21 -40 21 -2 0 -22 7 -104 40 -29 11 -53 19 -53 16 0 -2 -17 3 -37 11 -20 9 -48 17 -62 19 -14 2 -26 4 -26 5 0 2 -13 5 -85 18 -66 12 -398 14 -455 2z m476 -150 c322 -66 606 -249 802 -518 99 -136 169 -289 215 -471 24 -95 26 -125 27 -291 0 -204 -12 -284 -67 -440 -209 -591 -811 -957 -1423 -865 -491 74 -905 424 -1058 895 -82 254 -82 543 -1 803 154 487 593 849 1100 907 110 12 289 3 405 -20z"/>
 <path d="M1335 2683 c-422 -38 -804 -300 -995 -682 -41 -82 -94 -245 -111 -341 -19 -105 -16 -325 5 -432 96 -497 470 -877 968 -984 126 -28 383 -25 503 4 126 31 196 57 299 110 283 145 503 402 605 708 99 296 77 642 -58 921 -223 460 -715 742 -1216 696z m175 -476 c80 -42 110 -137 71 -223 -25 -56 -71 -87 -137 -92 -71 -6 -133 29 -163 91 -25 52 -26 85 -6 135 43 102 141 139 235 89z m-52 -829 c9 -9 12 -120 12 -439 0 -377 -2 -428 -16 -440 -11 -9 -20 -10 -32 -2 -15 9 -17 51 -20 438 -2 429 0 455 32 455 7 0 17 -5 24 -12z"/>
 <path d="M1450 2195 c0 -2 16 -12 36 -21 57 -27 76 -66 72 -146 -2 -44 0 -64 6 -58 5 5 11 36 13 67 5 68 -16 111 -69 143 -31 19 -58 26 -58 15z"/>
 </g>
<style>

</style>
</svg>